Coordinates
version=1
nRows=10
nColumns=40
inDegrees=yes

Units are S.I. units (second, meters, Newtons, ...)
Angles are in degrees.

endheader
time	pelvis_tilt	pelvis_list	pelvis_rotation	pelvis_tx	pelvis_ty	pelvis_tz	hip_flexion_r	hip_adduction_r	hip_rotation_r	knee_angle_r	knee_angle_r_beta	ankle_angle_r	subtalar_angle_r	mtp_angle_r	hip_flexion_l	hip_adduction_l	hip_rotation_l	knee_angle_l	knee_angle_l_beta	ankle_angle_l	subtalar_angle_l	mtp_angle_l	lumbar_extension	lumbar_bending	lumbar_rotation	arm_flex_r	arm_add_r	arm_rot_r	elbow_flex_r	pro_sup_r	wrist_flex_r	wrist_dev_r	arm_flex_l	arm_add_l	arm_rot_l	elbow_flex_l	pro_sup_l	wrist_flex_l	wrist_dev_l
     44.82000000	     -6.78503269	     -4.78837989	     -2.87685195	      0.90190730	      0.91882565	      0.44660123	     18.47419053	     -6.25086756	     -3.74162829	     54.37312699	     54.37312699	     -1.72001933	    -15.69491027	    -14.88580989	     23.12920092	     -4.26007777	     -1.80720296	     30.59185473	     30.59185473	     16.20002950	    -17.04407453	      8.44667113	     -9.81904963	      4.88622322	      2.87566016	     25.79229113	    -11.32939348	    -13.49546504	     29.47375610	     44.79804241	      0.00000000	      0.00000000	     24.97937429	    -16.03982416	      8.11263032	     36.58898081	     44.72970717	      0.00000000	      0.00000000
     44.83842857	     -6.50325762	     -4.95105014	     -3.35082957	      0.90093161	      0.91778705	      0.44529317	     20.11382303	     -6.06801695	     -3.50151057	     57.26660951	     57.26660951	     -2.10138517	    -17.13883106	    -11.55912851	     22.82006730	     -4.44743112	     -2.08915528	     31.39593010	     31.39593010	     16.96557682	    -17.19985803	      8.40687265	    -10.14323555	      5.22109257	      2.95575119	     22.79245249	    -11.48908235	    -13.54492065	     27.91483890	     44.91597133	      0.00000000	      0.00000000	     26.10929441	    -16.40768217	      7.66330646	     38.30747705	     44.86192579	      0.00000000	      0.00000000
     44.85685714	     -6.29755475	     -5.05459324	     -3.84763380	      0.89992439	      0.91675307	      0.44405732	     21.89705351	     -5.86965939	     -3.18132236	     60.12393037	     60.12393037	     -1.25780347	    -17.64508458	     -5.18710329	     22.51280124	     -4.55867808	     -2.34237424	     32.07728823	     32.07728823	     17.80801981	    -17.34003640	      8.64284823	    -10.36400908	      5.52412005	      2.69512540	     19.96260110	    -11.44286404	    -13.59041220	     26.18946732	     45.07504946	      0.00000000	      0.00000000	     26.93315749	    -17.02871903	      6.92111227	     40.17999537	     45.05000548	      0.00000000	      0.00000000
     44.87528571	     -6.07810733	     -5.13369220	     -4.36058545	      0.89895911	      0.91597476	      0.44299204	     23.47538942	     -5.69039097	     -2.96108328	     62.39055694	     62.39055694	     -0.34206733	    -18.07720306	      0.22498623	     22.10357573	     -4.66121664	     -2.67482179	     32.60515408	     32.60515408	     18.52937722	    -17.47226591	      8.80026617	    -10.61654932	      5.79818979	      2.53017808	     17.14334628	    -11.48287343	    -13.70970487	     24.43624355	     45.25110940	      0.00000000	      0.00000000	     27.85802165	    -17.55422495	      6.03388140	     41.90757094	     45.25403312	      0.00000000	      0.00000000
     44.89371429	     -5.90313151	     -5.19035157	     -4.88310219	      0.89796258	      0.91555336	      0.44207964	     24.80003072	     -5.61371754	     -2.96838171	     63.80295348	     63.80295348	     -0.02351817	    -18.54056037	      2.14970186	     21.61919750	     -4.74611717	     -3.05799548	     32.88919624	     32.88919624	     19.06465426	    -17.55756082	      8.72635902	    -10.86769789	      6.05956453	      2.74082295	     14.08395966	    -11.67221256	    -13.80821079	     22.86749955	     45.34676583	      0.00000000	      0.00000000	     29.02131915	    -17.80283283	      5.44556372	     43.36904673	     45.36844697	      0.00000000	      0.00000000
     44.91214286	     -5.69343823	     -5.27646332	     -5.38979767	      0.89714827	      0.91576361	      0.44149521	     25.77540669	     -5.43915664	     -2.99682730	     64.36772083	     64.36772083	      0.25623096	    -18.85977583	      2.32093687	     20.90429267	     -4.83686128	     -3.36349164	     32.82439453	     32.82439453	     19.41462058	    -17.75143080	      8.69892804	    -11.00380391	      6.37507891	      1.98998626	     11.61539415	    -11.59972944	    -13.89340302	     21.91655858	     45.37813187	      0.00000000	      0.00000000	     29.86912550	    -18.84381231	      5.08814207	     43.72450149	     45.41921070	      0.00000000	      0.00000000
     44.93057143	     -5.70338372	     -5.26924504	     -6.02001321	      0.89612039	      0.91621865	      0.44158409	     27.09544585	     -4.97285368	     -2.66764921	     64.67439341	     64.67439341	      2.68354661	    -18.77476605	      8.36033316	     20.32114129	     -4.97985080	     -4.03286536	     32.56784434	     32.56784434	     19.73198933	    -17.56009061	      8.68315171	    -11.03148715	      6.46594769	      2.21926983	      8.58429091	    -11.71100501	    -14.36074880	     21.00613681	     45.56167432	      0.00000000	      0.00000000	     30.23963504	    -19.04195086	      3.18367364	     47.01206472	     45.70206450	      0.00000000	      0.00000000
     44.94900000	     -5.74139803	     -5.31604943	     -6.59216031	      0.89506871	      0.91714337	      0.44189514	     27.97512485	     -4.58992616	     -2.68372916	     63.79925459	     63.79925459	      3.65805810	    -18.75281467	      8.15969379	     19.71164637	     -5.12834641	     -4.52946355	     32.16379440	     32.16379440	     19.86775381	    -17.61355590	      8.76152724	    -10.87347167	      6.69493140	      1.50020932	      6.41966706	    -11.71054109	    -14.44206539	     20.21533395	     45.58867287	      0.00000000	      0.00000000	     31.05847064	    -19.96566234	      2.85439270	     47.35320645	     45.74613849	      0.00000000	      0.00000000
     44.96742857	     -5.73053573	     -5.28895387	     -7.24434127	      0.89418302	      0.91912762	      0.44273059	     28.54651898	     -4.17647149	     -2.68267204	     62.02099802	     62.02099802	      4.66093769	    -18.65085283	      8.02682605	     18.57090704	     -5.20958522	     -5.22028393	     30.89768022	     30.89768022	     19.84928284	    -17.31962154	      8.91175128	    -10.92448899	      6.77729970	      1.99665457	      3.55457449	    -11.80546683	    -14.57534253	     19.19918992	     45.64407615	      0.00000000	      0.00000000	     31.86139407	    -20.17768203	      2.17828640	     48.92630869	     45.84176660	      0.00000000	      0.00000000
     44.98585714	     -5.78498950	     -5.33543848	     -7.88994609	      0.89308269	      0.92104807	      0.44407093	     28.98341341	     -3.51983468	     -2.56926462	     59.58885360	     59.58885360	      5.79445694	    -18.38707014	      7.24122069	     17.60076874	     -5.40346278	     -5.88498603	     29.79812539	     29.79812539	     19.67144995	    -17.10488627	      8.78953929	    -10.88546509	      6.86470451	      2.14918308	      0.91943591	    -11.83641216	    -14.86667358	     18.89450140	     45.70033287	      0.00000000	      0.00000000	     32.52411952	    -20.53014094	      1.08805887	     51.02416986	     45.98307468	      0.00000000	      0.00000000
